<?xml version="1.0" encoding="utf-8" ?><svg xmlns="http://www.w3.org/2000/svg" xmlns:xlink="http://www.w3.org/1999/xlink" width="89" height="89" viewBox="0 0 89 89"><path fill="#FEFEFE" d="M25.3596 17.7693C26.6555 17.8986 28.5633 17.7616 29.7133 18.3201C32.7031 19.772 46.611 34.4457 49.6608 37.8178C54.5227 37.9056 66.6169 38.1572 71.0136 37.4733L70.9971 44.3603C69.8729 45.5494 65.1362 50.7919 63.916 50.9075C57.9699 51.4707 50.6151 51.3034 44.657 51.1099C41.7706 48.9368 32.0242 38.8234 29.125 35.8458C28.6021 35.4116 27.8974 34.3763 27.4679 33.794C24.7493 36.864 21.2748 39.9739 18.3877 43.0535C18.5368 46.3064 18.8612 69.3827 17.9793 70.8571C16.7493 71.6511 13.6647 71.1893 12.131 71.0647C10.1259 69.843 6.91825 66.306 5.31709 64.4587C4.86164 61.198 4.97913 56.9679 4.9786 53.5858L5.00591 37.9717C6.14782 35.9964 23.7388 18.3774 25.3596 17.7693Z"/><path fill="#C3292E" d="M81.0753 54.1134C81.9567 54.1933 83.1508 54.0705 84.0552 54.0078C83.9231 57.3714 84.0611 60.8304 83.9213 64.2778C82.9897 65.7367 81.4768 67.1528 80.2453 68.3774C79.3971 69.2209 78.3128 70.3159 77.1296 70.6538C73.8823 71.5811 53.0338 71.0041 47.9733 70.9922L44.2925 71.0231C44.469 69.1953 44.4732 66.3492 44.5233 64.4549C45.9686 62.4294 49.0983 59.555 51.0273 57.9533C55.9737 57.5018 65.0906 57.8728 70.5406 57.8201C71.5743 57.0343 73.291 55.2709 74.5196 54.2414L81.0753 54.1134Z"/><path fill="#C3292E" d="M44.3328 18.0098C54.6929 17.774 65.5674 17.9037 75.9426 18.0997C78.4826 18.1477 82.4585 22.9216 83.9371 25.0012C84.0445 26.3157 84.2724 34.1148 83.7215 34.6963C80.6273 34.7723 77.5318 34.5204 74.4433 34.7042C73.0919 33.7432 71.9005 32.4246 70.7553 31.2194C65.3317 31.0748 57.7674 31.5804 52.6351 30.9349C49.77 28.3248 46.7889 25.9016 44.4838 22.7604L44.3328 18.0098Z"/></svg>